# This file uses centimeters as units for non-parametric coordinates.

mtllib ground.mtl
g default
v -21.121612 -0.500000 13.714228
v -21.121612 0.500000 13.714228
v -21.121612 0.500000 -13.714228
v -21.121612 -0.500000 -13.714228
v 0.139618 -0.500000 13.714228
v 0.139618 0.500000 13.714228
v 0.139618 0.500000 -13.714228
v 0.139618 -0.500000 -13.714228
vt 0.375000 0.000000
vt 0.500826 0.000000
vt 0.500826 0.250000
vt 0.375000 0.250000
vt 0.500826 0.500000
vt 0.375000 0.500000
vt 0.500826 0.750000
vt 0.375000 0.750000
vt 0.500826 1.000000
vt 0.375000 1.000000
vt 0.125000 0.000000
vt 0.125000 0.250000
vn 0.000000 0.000000 1.000000
vn 0.000000 0.000000 1.000000
vn 0.000000 0.000000 1.000000
vn 0.000000 0.000000 1.000000
vn 0.000000 1.000000 0.000000
vn 0.000000 1.000000 0.000000
vn 0.000000 1.000000 0.000000
vn 0.000000 1.000000 0.000000
vn 0.000000 0.000000 -1.000000
vn 0.000000 0.000000 -1.000000
vn 0.000000 0.000000 -1.000000
vn 0.000000 0.000000 -1.000000
vn 0.000000 -1.000000 0.000000
vn 0.000000 -1.000000 0.000000
vn 0.000000 -1.000000 0.000000
vn 0.000000 -1.000000 0.000000
vn -1.000000 0.000000 0.000000
vn -1.000000 0.000000 0.000000
vn -1.000000 0.000000 0.000000
vn -1.000000 0.000000 0.000000
s off
g polySurface1 pCube1
usemtl initialShadingGroup
f 1/1/1 5/2/2 6/3/3 2/4/4
f 2/4/5 6/3/6 7/5/7 3/6/8
f 3/6/9 7/5/10 8/7/11 4/8/12
f 4/8/13 8/7/14 5/9/15 1/10/16
f 4/11/17 1/1/18 2/4/19 3/12/20
g default
v 21.121612 -0.500000 13.714228
v 21.121612 0.500000 13.714228
v 21.121612 0.500000 -13.714228
v 21.121612 -0.500000 -13.714228
v 0.139618 -0.500000 13.714228
v 0.139618 0.500000 13.714228
v 0.139618 0.500000 -13.714228
v 0.139618 -0.500000 -13.714228
vt 0.625000 0.000000
vt 0.875000 0.000000
vt 0.875000 0.250000
vt 0.625000 0.250000
vt 0.500826 0.250000
vt 0.500826 0.000000
vt 0.500826 0.500000
vt 0.625000 0.500000
vt 0.500826 0.750000
vt 0.625000 0.750000
vt 0.500826 1.000000
vt 0.625000 1.000000
vn 1.000000 0.000000 0.000000
vn 1.000000 0.000000 0.000000
vn 1.000000 0.000000 0.000000
vn 1.000000 0.000000 0.000000
vn 0.000000 0.000000 1.000000
vn 0.000000 0.000000 1.000000
vn 0.000000 0.000000 1.000000
vn 0.000000 0.000000 1.000000
vn 0.000000 1.000000 0.000000
vn 0.000000 1.000000 0.000000
vn 0.000000 1.000000 0.000000
vn 0.000000 1.000000 0.000000
vn 0.000000 0.000000 -1.000000
vn 0.000000 0.000000 -1.000000
vn 0.000000 0.000000 -1.000000
vn 0.000000 0.000000 -1.000000
vn 0.000000 -1.000000 0.000000
vn 0.000000 -1.000000 0.000000
vn 0.000000 -1.000000 0.000000
vn 0.000000 -1.000000 0.000000
s off
g pCube1 polySurface2
usemtl initialShadingGroup
f 9/13/21 12/14/22 11/15/23 10/16/24
f 14/17/25 13/18/26 9/13/27 10/16/28
f 15/19/29 14/17/30 10/16/31 11/20/32
f 16/21/33 15/19/34 11/20/35 12/22/36
f 13/23/37 16/21/38 12/22/39 9/24/40
